<svg width="16" height="16" viewBox="0 0 16 16" fill="none" xmlns="http://www.w3.org/2000/svg">
<path d="M15.2795 0.0778939C15.2569 0.0785696 15.2343 0.0804713 15.2119 0.0835905H9.45835C9.37553 0.0824192 9.2933 0.0977199 9.21645 0.128604C9.13959 0.159487 9.06964 0.205338 9.01066 0.26349C8.95168 0.321643 8.90485 0.390938 8.87288 0.467349C8.84091 0.54376 8.82445 0.625762 8.82445 0.70859C8.82445 0.791419 8.84091 0.873421 8.87288 0.949832C8.90485 1.02624 8.95168 1.09554 9.01066 1.15369C9.06964 1.21184 9.13959 1.25769 9.21645 1.28858C9.2933 1.31946 9.37553 1.33476 9.45835 1.33359H13.7829L7.34979 7.7667C7.28981 7.82429 7.24192 7.89327 7.20893 7.9696C7.17594 8.04593 7.15851 8.12807 7.15767 8.21122C7.15682 8.29437 7.17258 8.37685 7.20401 8.45384C7.23544 8.53082 7.28191 8.60076 7.34071 8.65956C7.39951 8.71836 7.46945 8.76484 7.54644 8.79627C7.62342 8.8277 7.7059 8.84345 7.78905 8.84261C7.8722 8.84176 7.95435 8.82433 8.03068 8.79134C8.10701 8.75835 8.17599 8.71047 8.23358 8.65048L14.6667 2.21738V6.54192C14.6655 6.62474 14.6808 6.70697 14.7117 6.78383C14.7426 6.86068 14.7884 6.93063 14.8466 6.98961C14.9047 7.04859 14.974 7.09543 15.0504 7.1274C15.1269 7.15936 15.2089 7.17583 15.2917 7.17583C15.3745 7.17583 15.4565 7.15936 15.5329 7.1274C15.6093 7.09543 15.6786 7.04859 15.7368 6.98961C15.7949 6.93063 15.8408 6.86068 15.8717 6.78383C15.9026 6.70697 15.9179 6.62474 15.9167 6.54192V0.787529C15.929 0.697607 15.9216 0.606081 15.895 0.519313C15.8683 0.432545 15.8231 0.352617 15.7625 0.285085C15.7018 0.217553 15.6272 0.164037 15.5438 0.128257C15.4604 0.0924765 15.3702 0.0752907 15.2795 0.0778939ZM3.20835 1.33359C1.48981 1.33359 0.0833511 2.74005 0.0833511 4.45859V12.7919C0.0833511 14.5105 1.48981 15.9169 3.20835 15.9169H11.5417C13.2602 15.9169 14.6667 14.5105 14.6667 12.7919V8.62526C14.6679 8.54244 14.6526 8.46021 14.6217 8.38336C14.5908 8.3065 14.5449 8.23655 14.4868 8.17757C14.4286 8.11859 14.3593 8.07175 14.2829 8.03978C14.2065 8.00782 14.1245 7.99135 14.0417 7.99135C13.9589 7.99135 13.8769 8.00782 13.8004 8.03978C13.724 8.07175 13.6547 8.11859 13.5966 8.17757C13.5384 8.23655 13.4926 8.3065 13.4617 8.38336C13.4308 8.46021 13.4155 8.54244 13.4167 8.62526V12.7919C13.4167 13.835 12.5848 14.6669 11.5417 14.6669H3.20835C2.16523 14.6669 1.33335 13.835 1.33335 12.7919V4.45859C1.33335 3.41547 2.16523 2.58359 3.20835 2.58359H7.37502C7.45784 2.58476 7.54006 2.56946 7.61692 2.53858C7.69377 2.50769 7.76372 2.46184 7.82271 2.40369C7.88169 2.34554 7.92852 2.27624 7.96049 2.19983C7.99246 2.12342 8.00892 2.04142 8.00892 1.95859C8.00892 1.87576 7.99246 1.79376 7.96049 1.71735C7.92852 1.64094 7.88169 1.57164 7.82271 1.51349C7.76372 1.45534 7.69377 1.40949 7.61692 1.3786C7.54006 1.34772 7.45784 1.33242 7.37502 1.33359H3.20835Z" fill="white"/>
</svg>
