<svg width="16" height="23" viewBox="0 0 16 23" fill="none" xmlns="http://www.w3.org/2000/svg">
<path d="M7.9998 0.799805C7.87442 0.79998 7.75083 0.829627 7.639 0.886352C7.52718 0.943078 7.43026 1.02529 7.35605 1.12637C7.34799 1.13659 7.34017 1.14701 7.33262 1.15762C5.44372 3.58826 0.799805 11.2186 0.799805 15.1998C0.799805 19.1766 4.023 22.3998 7.9998 22.3998C11.9766 22.3998 15.1998 19.1766 15.1998 15.1998C15.1998 11.2231 10.5662 3.60815 8.67324 1.16855C8.67303 1.16828 8.67346 1.16727 8.67324 1.16699C8.66377 1.15314 8.65387 1.13959 8.64356 1.12637C8.56935 1.02529 8.47243 0.943078 8.36061 0.886352C8.24878 0.829627 8.12519 0.79998 7.9998 0.799805ZM3.1998 14.3998C3.6422 14.3998 3.9998 14.7574 3.9998 15.1998C3.9998 16.8878 5.07179 18.4022 6.66699 18.967C7.08299 19.1142 7.30093 19.5705 7.15293 19.9873C7.03693 20.3153 6.7294 20.5201 6.3998 20.5201C6.3118 20.5201 6.22062 20.506 6.13262 20.4748C3.89982 19.6852 2.3998 17.5646 2.3998 15.1998C2.3998 14.7574 2.7574 14.3998 3.1998 14.3998Z" fill="white"/>
</svg>
