<svg width="22" height="16" viewBox="0 0 22 16" fill="none" xmlns="http://www.w3.org/2000/svg">
<path d="M2.2001 0C1.3161 0 0.600098 0.716 0.600098 1.6V14.4C0.600098 15.284 1.3161 16 2.2001 16H19.8001C20.6841 16 21.4001 15.284 21.4001 14.4V1.6C21.4001 0.716 20.6841 0 19.8001 0H2.2001ZM17.4001 2.4C18.2841 2.4 19.0001 3.116 19.0001 4C19.0001 4.884 18.2841 5.6 17.4001 5.6C16.5161 5.6 15.8001 4.884 15.8001 4C15.8001 3.116 16.5161 2.4 17.4001 2.4ZM3.0001 4L6.97822 7.97813L7.8001 8.8L8.7251 9.725C9.0627 10.0626 9.60781 10.0595 9.94541 9.72188C10.2838 9.38428 10.2838 8.83527 9.94541 8.49687L9.02353 7.57656L10.2001 6.4L12.5782 8.77812L14.3251 10.525C14.6627 10.8626 15.2078 10.8595 15.5454 10.5219C15.8838 10.1843 15.8838 9.63527 15.5454 9.29688L15.4235 9.17656L16.6001 8L19.0001 10.4V13.6H3.0001V4Z" fill="white"/>
</svg>
