<svg width="16" height="16" viewBox="0 0 16 16" fill="none" xmlns="http://www.w3.org/2000/svg">
<path d="M4.87499 0.0834961C2.23599 0.0834961 0.0833282 2.23616 0.0833282 4.87516V11.1252C0.0833282 13.7638 2.23592 15.9168 4.87499 15.9168H11.125C13.7637 15.9168 15.9167 13.7639 15.9167 11.1252V4.87516C15.9167 2.23608 13.7636 0.0834961 11.125 0.0834961H4.87499ZM4.87499 1.3335H11.125C13.088 1.3335 14.6667 2.91174 14.6667 4.87516V11.1252C14.6667 13.0881 13.0879 14.6668 11.125 14.6668H4.87499C2.91157 14.6668 1.33333 13.0882 1.33333 11.1252V4.87516C1.33333 2.91167 2.9115 1.3335 4.87499 1.3335ZM12.1667 3.00016C11.7062 3.00016 11.3333 3.37308 11.3333 3.8335C11.3333 4.29391 11.7062 4.66683 12.1667 4.66683C12.6271 4.66683 13 4.29391 13 3.8335C13 3.37308 12.6271 3.00016 12.1667 3.00016ZM7.99999 3.8335C5.70632 3.8335 3.83333 5.70649 3.83333 8.00016C3.83333 10.2938 5.70632 12.1668 7.99999 12.1668C10.2937 12.1668 12.1667 10.2938 12.1667 8.00016C12.1667 5.70649 10.2937 3.8335 7.99999 3.8335ZM7.99999 5.0835C9.61799 5.0835 10.9167 6.38217 10.9167 8.00016C10.9167 9.61815 9.61799 10.9168 7.99999 10.9168C6.382 10.9168 5.08333 9.61815 5.08333 8.00016C5.08333 6.38217 6.382 5.0835 7.99999 5.0835Z" fill="white"/>
</svg>
