<svg width="48" height="48" viewBox="0 0 48 48" fill="none" xmlns="http://www.w3.org/2000/svg">
<path d="M41.2956 5.34839L26.3051 16.4821L29.0772 9.91336L41.2956 5.34839Z" fill="#E2761B" stroke="#E2761B" stroke-linecap="round" stroke-linejoin="round"/>
<path d="M6.68921 5.34839L21.5593 16.5876L18.9227 9.91336L6.68921 5.34839Z" fill="#E4761B" stroke="#E4761B" stroke-linecap="round" stroke-linejoin="round"/>
<path d="M35.902 31.1563L31.9095 37.2731L40.4519 39.6234L42.9077 31.2919L35.902 31.1563Z" fill="#E4761B" stroke="#E4761B" stroke-linecap="round" stroke-linejoin="round"/>
<path d="M5.1073 31.2919L7.54798 39.6234L16.0903 37.2731L12.0979 31.1563L5.1073 31.2919Z" fill="#E4761B" stroke="#E4761B" stroke-linecap="round" stroke-linejoin="round"/>
<path d="M15.6082 20.8211L13.2278 24.4218L21.7099 24.7985L21.4086 15.6836L15.6082 20.8211Z" fill="#E4761B" stroke="#E4761B" stroke-linecap="round" stroke-linejoin="round"/>
<path d="M32.3766 20.8211L26.5009 15.5781L26.3051 24.7985L34.7721 24.4218L32.3766 20.8211Z" fill="#E4761B" stroke="#E4761B" stroke-linecap="round" stroke-linejoin="round"/>
<path d="M16.0903 37.2731L21.1826 34.7872L16.7834 31.3522L16.0903 37.2731Z" fill="#E4761B" stroke="#E4761B" stroke-linecap="round" stroke-linejoin="round"/>
<path d="M26.8022 34.7872L31.9096 37.2731L31.2015 31.3522L26.8022 34.7872Z" fill="#E4761B" stroke="#E4761B" stroke-linecap="round" stroke-linejoin="round"/>
<path d="M31.9096 37.273L26.8022 34.7872L27.209 38.1167L27.1638 39.5179L31.9096 37.273Z" fill="#D7C1B3" stroke="#D7C1B3" stroke-linecap="round" stroke-linejoin="round"/>
<path d="M16.0903 37.273L20.8361 39.5179L20.806 38.1167L21.1826 34.7872L16.0903 37.273Z" fill="#D7C1B3" stroke="#D7C1B3" stroke-linecap="round" stroke-linejoin="round"/>
<path d="M20.9116 29.1525L16.663 27.9021L19.6611 26.5311L20.9116 29.1525Z" fill="#233447" stroke="#233447" stroke-linecap="round" stroke-linejoin="round"/>
<path d="M27.0735 29.1525L28.324 26.5311L31.3371 27.9021L27.0735 29.1525Z" fill="#233447" stroke="#233447" stroke-linecap="round" stroke-linejoin="round"/>
<path d="M16.0904 37.2731L16.8135 31.1563L12.0979 31.2919L16.0904 37.2731Z" fill="#CD6116" stroke="#CD6116" stroke-linecap="round" stroke-linejoin="round"/>
<path d="M31.1864 31.1563L31.9096 37.2731L35.902 31.2919L31.1864 31.1563Z" fill="#CD6116" stroke="#CD6116" stroke-linecap="round" stroke-linejoin="round"/>
<path d="M34.7721 24.4219L26.3051 24.7985L27.0885 29.1526L28.3389 26.5311L31.3521 27.9021L34.7721 24.4219Z" fill="#CD6116" stroke="#CD6116" stroke-linecap="round" stroke-linejoin="round"/>
<path d="M16.6629 27.9021L19.6761 26.5311L20.9115 29.1526L21.71 24.7985L13.2279 24.4219L16.6629 27.9021Z" fill="#CD6116" stroke="#CD6116" stroke-linecap="round" stroke-linejoin="round"/>
<path d="M13.2279 24.4219L16.7835 31.3522L16.6629 27.9021L13.2279 24.4219Z" fill="#E4751F" stroke="#E4751F" stroke-linecap="round" stroke-linejoin="round"/>
<path d="M31.3522 27.9021L31.2015 31.3522L34.7722 24.4219L31.3522 27.9021Z" fill="#E4751F" stroke="#E4751F" stroke-linecap="round" stroke-linejoin="round"/>
<path d="M21.71 24.7985L20.9115 29.1526L21.9058 34.2901L22.1318 27.5255L21.71 24.7985Z" fill="#E4751F" stroke="#E4751F" stroke-linecap="round" stroke-linejoin="round"/>
<path d="M26.3051 24.7985L25.8983 27.5104L26.0791 34.2901L27.0885 29.1526L26.3051 24.7985Z" fill="#E4751F" stroke="#E4751F" stroke-linecap="round" stroke-linejoin="round"/>
<path d="M27.0885 29.1526L26.0791 34.29L26.8023 34.7872L31.2015 31.3522L31.3522 27.9021L27.0885 29.1526Z" fill="#F6851B" stroke="#F6851B" stroke-linecap="round" stroke-linejoin="round"/>
<path d="M16.663 27.9021L16.7835 31.3522L21.1827 34.7872L21.9059 34.29L20.9116 29.1526L16.663 27.9021Z" fill="#F6851B" stroke="#F6851B" stroke-linecap="round" stroke-linejoin="round"/>
<path d="M27.1638 39.5179L27.209 38.1168L26.8323 37.7853H21.1525L20.806 38.1168L20.8361 39.5179L16.0903 37.2731L17.7476 38.629L21.1073 40.9642H26.8775L30.2523 38.629L31.9095 37.2731L27.1638 39.5179Z" fill="#C0AD9E" stroke="#C0AD9E" stroke-linecap="round" stroke-linejoin="round"/>
<path d="M26.8023 34.7872L26.0791 34.29H21.9058L21.1827 34.7872L20.806 38.1168L21.1525 37.7853H26.8324L27.209 38.1168L26.8023 34.7872Z" fill="#161616" stroke="#161616" stroke-linecap="round" stroke-linejoin="round"/>
<path d="M41.9284 17.2053L43.209 11.0584L41.2957 5.34839L26.8022 16.1055L32.3766 20.8211L40.2561 23.1262L42.0038 21.0923L41.2505 20.5499L42.4557 19.4501L41.5217 18.7269L42.7269 17.8079L41.9284 17.2053Z" fill="#763D16" stroke="#763D16" stroke-linecap="round" stroke-linejoin="round"/>
<path d="M4.79089 11.0584L6.0715 17.2053L5.25794 17.8079L6.46321 18.7269L5.54419 19.4501L6.74946 20.5499L5.99617 21.0923L7.72875 23.1262L15.6082 20.8211L21.1826 16.1055L6.6892 5.34839L4.79089 11.0584Z" fill="#763D16" stroke="#763D16" stroke-linecap="round" stroke-linejoin="round"/>
<path d="M40.2561 23.1262L32.3767 20.8211L34.7722 24.4219L31.2015 31.3522L35.9021 31.2919H42.9077L40.2561 23.1262Z" fill="#F6851B" stroke="#F6851B" stroke-linecap="round" stroke-linejoin="round"/>
<path d="M15.6082 20.8211L7.72877 23.1262L5.1073 31.2919H12.0979L16.7834 31.3522L13.2278 24.4219L15.6082 20.8211Z" fill="#F6851B" stroke="#F6851B" stroke-linecap="round" stroke-linejoin="round"/>
<path d="M26.3052 24.7985L26.8023 16.1055L29.0923 9.91339H18.9229L21.1827 16.1055L21.71 24.7985L21.8908 27.5405L21.9059 34.29H26.0792L26.1093 27.5405L26.3052 24.7985Z" fill="#F6851B" stroke="#F6851B" stroke-linecap="round" stroke-linejoin="round"/>
</svg>
