<svg width="20" height="20" viewBox="0 0 20 20" fill="none" xmlns="http://www.w3.org/2000/svg">
<path d="M9.9999 0.399902C4.70753 0.399902 0.399902 4.70753 0.399902 9.9999C0.399902 15.2923 4.70753 19.5999 9.9999 19.5999C15.2923 19.5999 19.5999 15.2923 19.5999 9.9999C19.5999 9.78774 19.5156 9.58429 19.3655 9.43428L19.2468 9.31709C19.229 9.29742 19.2102 9.27864 19.1905 9.26084L10.7952 0.863965C10.7463 0.796908 10.6873 0.737868 10.6202 0.688965L10.5655 0.634277C10.4155 0.484248 10.2121 0.399943 9.9999 0.399902ZM9.23584 2.09678C9.21547 2.3289 9.1999 2.56305 9.1999 2.7999C9.1999 3.08633 9.21566 3.36957 9.24521 3.64834C6.06701 4.02236 3.5999 6.72124 3.5999 9.9999C3.5999 13.5343 6.4655 16.3999 9.9999 16.3999C13.2786 16.3999 15.9774 13.9328 16.3515 10.7546C16.6302 10.7841 16.9135 10.7999 17.1999 10.7999C17.4368 10.7999 17.6709 10.7843 17.903 10.764C17.5146 14.8232 14.1631 17.9999 9.9999 17.9999C5.57228 17.9999 1.9999 14.4275 1.9999 9.9999C1.9999 5.8367 5.17661 2.48525 9.23584 2.09678ZM10.8171 3.14834L16.8515 9.18271C13.5871 9.00801 10.9918 6.41271 10.8171 3.14834Z" fill="white"/>
</svg>
