<?xml version="1.0" encoding="UTF-8" standalone="no"?>
<svg
   xmlns:dc="http://purl.org/dc/elements/1.1/"
   xmlns:cc="http://creativecommons.org/ns#"
   xmlns:rdf="http://www.w3.org/1999/02/22-rdf-syntax-ns#"
   xmlns:svg="http://www.w3.org/2000/svg"
   xmlns="http://www.w3.org/2000/svg"
   xmlns:sodipodi="http://sodipodi.sourceforge.net/DTD/sodipodi-0.dtd"
   xmlns:inkscape="http://www.inkscape.org/namespaces/inkscape"
   viewBox="0 0 1283 1283"
   version="1.1"
   id="svg221"
   sodipodi:docname="TasteNFT_logo.svg"
   inkscape:version="0.92.4 (5da689c313, 2019-01-14)"
   width="1283"
   height="1283"
   inkscape:export-filename="G:\My Drive\TasteNFT\logo\tastenft_logo_round_200x200.png"
   inkscape:export-xdpi="14.96"
   inkscape:export-ydpi="14.96">
  <metadata
     id="metadata225">
    <rdf:RDF>
      <cc:Work
         rdf:about="">
        <dc:format>image/svg+xml</dc:format>
        <dc:type
           rdf:resource="http://purl.org/dc/dcmitype/StillImage" />
        <dc:title></dc:title>
      </cc:Work>
    </rdf:RDF>
  </metadata>
  <sodipodi:namedview
     pagecolor="#ffffff"
     bordercolor="#666666"
     borderopacity="1"
     objecttolerance="10"
     gridtolerance="10"
     guidetolerance="10"
     inkscape:pageopacity="0"
     inkscape:pageshadow="2"
     inkscape:window-width="3840"
     inkscape:window-height="2004"
     id="namedview223"
     showgrid="false"
     inkscape:zoom="0.5"
     inkscape:cx="137.3694"
     inkscape:cy="1197.133"
     inkscape:window-x="-16"
     inkscape:window-y="-16"
     inkscape:window-maximized="1"
     inkscape:current-layer="svg221"
     fit-margin-top="0"
     fit-margin-right="0"
     fit-margin-bottom="0"
     fit-margin-left="0"
     inkscape:pagecheckerboard="true" />
  <defs
     id="defs4">
    <style
       id="style2">.cls-1{fill:#d8331f;}.cls-2{fill:#f2091b;}.cls-3{fill:#a60e20;}.cls-4{fill:#680718;}.cls-5{fill:#9a0718;}.cls-6{fill:#f2473b;}.cls-7{fill:#ff4389;}.cls-8{fill:#ff66b5;}.cls-9{fill:#d33886;}.cls-10{fill:#ffd6ee;}.cls-11{fill:#f79b7f;}.cls-12{fill:#610300;}.cls-13,.cls-15{fill:#fff;}.cls-14{fill:#231f20;}.cls-15{stroke:#231f20;stroke-miterlimit:10;}.cls-16{fill:#050505;}</style>
  </defs>
  <g
     id="g1041"
     transform="translate(0,-4)">
    <circle
       r="639"
       cy="645.5"
       cx="641.5"
       id="path867"
       style="opacity:1;fill:#ffffff;fill-opacity:1;fill-rule:nonzero;stroke:#ffffff;stroke-width:5;stroke-linecap:butt;stroke-linejoin:miter;stroke-miterlimit:4;stroke-dasharray:none;stroke-dashoffset:0;stroke-opacity:1" />
    <g
       inkscape:export-ydpi="100.01896"
       inkscape:export-xdpi="100.01896"
       inkscape:export-filename="G:\My Drive\TasteNFT\logo\tastenft_logo.png"
       transform="translate(153.5,117.97002)"
       id="g1507">
      <g
         id="g1257">
        <path
           sodipodi:nodetypes="csccccccsssc"
           class="cls-1"
           d="m 621.39,208.63 c 0,0 -66.4,30 -74.07,91.25 -7.67,61.25 -65,122.51 -121.17,140.33 -55.14,17.51 -92.58,67.8 -155.49,36.81 C 191.23,437.89 61.05,374.52 5.29,389.53 c 12.513158,-14.72934 37.377286,-37.4992 44.047072,-55.63884 9.89,-27.53 14.953431,-45.0192 18.093431,-66.4492 6.49,-44.22 61.704387,-131.32258 135.934387,-175.952577 26.27,-15.75 67.32617,-65.976636 112.22511,-56.089383 47.74911,10.514893 84.30286,-21.128302 122.73286,0.221698 38.43,21.35 85.69476,80.552042 103.28374,111.791292 C 568.35749,194.92444 621.39,208.63 621.39,208.63 Z"
           id="path6"
           inkscape:connector-curvature="0"
           style="fill:#95001a;fill-opacity:1" />
        <path
           class="cls-2"
           d="m 539.56,239.19 c 0,0 -23.17,185.99 -150.85,174.82 -127.68,-11.17 -85.44,-62.48 -323.86,-70.51 0,0 63.73,-59.78 191,-73.37 127.27,-13.59 283.71,-30.94 283.71,-30.94 z"
           id="path8"
           inkscape:connector-curvature="0"
           style="fill:#780016;fill-opacity:1" />
        <path
           sodipodi:nodetypes="sccccccsss"
           class="cls-3"
           d="M 447.7559,90.624695 C 484.6547,133.28766 514.18,210.76 616.39,209.1 c 0,0 -89.21,25.57 -153,-21.67 C 427.17,160.59 359.23581,148.31837 359.23581,148.31837 L 64.85,343.5 0,389.91 c 57.68,-48.67 109.89,-95.26 141.32,-153.15 31.07,-57.21 69.80974,-63.28962 126.02266,-98.02593 46.91944,-28.99347 53.49358,-48.767065 61.14398,-47.3565 86.78706,16.00162 91.90741,-32.389074 119.26926,-0.752875 z"
           id="path12"
           inkscape:connector-curvature="0"
           style="fill:#69001f;fill-opacity:1" />
        <path
           sodipodi:nodetypes="ccccccsssc"
           class="cls-4"
           d="m 588.08,212.94 c -31.12,12.47 -39,25.32 -52.47,36.87 -41.4,35.47 -69.47,55.7 -101.74,63.1 -59.62,13.66 -138.20542,2.34843 -258.83542,8.13843 -59.82,2.88 -94.666793,15.68058 -118.296308,28.46198 0,0 78.782208,-89.87864 150.112208,-126.98864 66.09,-34.38 88.16728,-68.65939 132.47609,-79.93224 30.98989,-7.88431 38.19672,-2.71878 73.65433,-8.93181 15.56781,-2.72785 36.48972,20.60346 45.9291,28.04228 31.33,24.69 76.14,51.06 129.17,51.24 z"
           id="path14"
           inkscape:connector-curvature="0"
           style="fill:#36000a;fill-opacity:1" />
        <path
           class="cls-3"
           d="m 215.31,431.53 c 45.67,39.34 118,76.53 194.82,42.77 76.82,-33.76 120,-87.71 137.25,-147.67 1,22.45 -1.75,68.8 -41.54,116.27 -13.3,15.88 -32.92,38.71 -70.86,55.78 -54.17,24.38 -105.93,19.08 -117.46,17.68 C 302.33,514.5 287.15,510.81 241.4,488.73 150.01,444.63 129.12,420.06 64.92,402.21 A 405.48,405.48 0 0 0 0,389.91 l 27.25,-19.5 c 0,0 142.4,21.77 188.06,61.12 z"
           id="path16"
           inkscape:connector-curvature="0"
           style="fill:#69001f;fill-opacity:1" />
        <path
           class="cls-5"
           d="m 616.39,209.1 c 0,0 -60.52,34.85 -115.12,98.84 0,0 32.15,-84.48 73.38,-95.46 -0.04,0 33.11,-1.26 41.74,-3.38 z"
           id="path18"
           inkscape:connector-curvature="0"
           style="fill:#810716;fill-opacity:1" />
        <path
           sodipodi:nodetypes="ssscssssccsssss"
           class="cls-6"
           d="m 439.47789,18.87006 c 26.46123,13.929436 40.21456,19.159921 58.34985,45.242127 13.29634,19.122812 30.90125,56.230083 45.50223,80.324803 25.31828,41.78055 45.54595,44.68144 72.76003,64.54301 0,0 -67.86011,-5.76087 -115.0449,-100.11068 -12.3158,-24.62643 -35.39198,-57.15993 -67.2233,-64.56838 -14.84948,-3.456081 -31.60432,-1.444268 -50.06093,9.388999 -36.12858,21.20598 -55.37116,-3.095743 -81.49133,4.511438 -26.85053,7.819892 -29.27049,29.366512 -73.16049,41.066512 C 86.048103,151.88835 118.25806,318.07872 0,389.91 0,389.92 35.928027,359.35865 52.515234,306.24993 79.460808,219.97593 104.08002,151.66543 177.80962,100.806 207.27638,80.479538 230.32168,64.224824 282.19528,30.390887 c 18.97878,-12.378679 58.55669,-0.590825 83.56571,-5.163696 54.35371,-9.938512 47.97017,-19.910446 73.7169,-6.357131 z"
           id="path22"
           inkscape:connector-curvature="0"
           style="fill:#b50018;fill-opacity:1" />
        <path
           sodipodi:nodetypes="cccccc"
           class="cls-7"
           d="m 382.84,271.04 c 0,0 -155.84835,-40.82843 -280.84835,59.63157 0,0 232.32835,53.72843 192.48835,167.13843 -81.24,231.28 123.47,239.24 297.77,60.81 69.21,-70.86 70.90777,-222.1819 -43.46223,-325.6319 0,0 -93.07777,-29.9381 -165.94777,38.0519 z"
           id="path24"
           inkscape:connector-curvature="0"
           style="fill:#f21b4e;fill-opacity:1" />
        <path
           sodipodi:nodetypes="ccscccccc"
           class="cls-8"
           d="M 633.93,417.04 C 616.66,451.68 523.53,583.7 422.93,593.33 296.16,605.45 385.74,434.18 295.16,389.91 204.58,345.64 151.09,338.84 151.09,338.84 c 0,0 19.59,-31.57 67.57,-62.09 87.79,-16.79 164.18,-5.71 164.18,-5.71 43.8,-40.86 93.635,-48.18 126.925,-46.72 11.86,1.44 21.60141,5.11388 34.16141,7.25388 C 607.10641,288.70388 635.2,355.42 633.93,417.04 Z"
           id="path26"
           inkscape:connector-curvature="0"
           style="fill:#fe677e;fill-opacity:1" />
        <path
           sodipodi:nodetypes="cccccccccccsccccccssccc"
           class="cls-9"
           d="m 628.88,493.76 c -1,2.66 -1.56,26.85 -34.28,62.6 C 379.13,762.55 215.39,714.38 288.39,499.95 327.14,386.17 97.74901,332.08579 97.74901,332.08579 214.24901,227.60579 382.82,271.05 382.82,271.05 c 0.74,-0.69 1.47,-1.35 2.21,-2 0.0204,0.14848 0.0504,0.29546 0.09,0.44 7.00615,4.0196 13.79557,8.40568 20.34,13.14 l -2.07,-7.19 -17.91,-6.76 -0.39,0.35 c 0.49577,-0.49577 17.50832,-21.89202 49.46302,-35.70473 32.50057,-14.04867 88.88874,-18.94182 116.60284,1.3643 C 499.01597,216.36665 433.9454,244.10088 422.2,295.56 l -0.66,-0.26 c 48,41.64 77.25,101.48 69.93,157.21 -22.85,-60.18 -43.94,-101.69 -86.67,-151.37 -24.25,-8 -106.93,-32.94 -160.44,-21.51 -63.29,13.51 -75.25,61.28 -35.8,87.82 39.45,26.54 90.16,35.57 99.68,79.81 9.52,44.24 -17.21,91.25 -20.89,133.35 -4.18,47.83 10.67,89.09 59.71,90 81.33,1.48 218.21,-76.6 281.82,-176.85 z"
           id="path28"
           inkscape:connector-curvature="0"
           style="fill:#b6044a;fill-opacity:1" />
        <path
           class="cls-9"
           d="m 405.48,282.62 a 229.87,229.87 0 0 0 -20.34,-13.14 3.43,3.43 0 0 1 -0.09,-0.44 v 0 l 0.39,-0.35 17.95,6.75 z"
           id="path30"
           inkscape:connector-curvature="0"
           style="fill:#d33886" />
        <path
           class="cls-10"
           d="m 571.9,270.42 c 1.86,2.71 21.57,31.82 11.79,37.73 -8.76,5.31 -42.23,-7.43 -52.75,-29.41 -7.1,-14.84 -4.12,-34.7 4.81,-37.49 10.85,-3.38 29.1,18.91 36.15,29.17 z"
           id="path34"
           inkscape:connector-curvature="0"
           style="fill:#ffd6ee" />
        <path
           class="cls-10"
           d="m 406.83,325.06 c 35,33.77 49,74.42 43.84,76.53 -1.19,0.49 -9.7,-8.34 -26.68,-26 -24.08,-25.05 -30.54,-32.73 -36.84,-42.84 -1.2,-1.94 -16.54,-26.8 -11.47,-29.38 4.3,-2.19 21.59,12.46 31.15,21.69 z"
           id="path36"
           inkscape:connector-curvature="0"
           style="fill:#ffd6ee" />
        <path
           class="cls-10"
           d="m 325.39,622.25 c -3.29,3.28 14.27,21.06 40.49,24.11 11.93,1.38 26.23,-0.21 27.26,-2.94 0.5,-1.33 -2,-3.19 -23.14,-9.79 -28.48,-8.87 -42.69,-13.34 -44.61,-11.38 z"
           id="path38"
           inkscape:connector-curvature="0"
           style="fill:#ffd6ee" />
        <path
           class="cls-10"
           d="m 316.69,578.97 c -1.18,4.18 7.78,8.3 11.19,6.83 2.09,-0.91 2.29,-4 1.64,-5.91 a 7.5,7.5 0 0 0 -8.17,-4.65 c -2.2,0.46 -4.2,2.1 -4.66,3.73 z"
           id="path40"
           inkscape:connector-curvature="0"
           style="fill:#ffd6ee" />
        <path
           class="cls-10"
           d="m 324.91,298.07 c -1.08,8.39 -26.43,17.78 -47.53,17.47 -20.25,-0.3 -41.35,-9.62 -39.26,-18 2,-7.9 24.1,-13.82 39.82,-14.78 22.71,-1.43 48.09,6.54 46.97,15.31 z"
           id="path42"
           inkscape:connector-curvature="0"
           style="fill:#ffd6ee" />
        <path
           sodipodi:nodetypes="sscss"
           class="cls-11"
           d="m 481.92435,69.6775 c 13.14655,32.22736 -4.47373,-3.269327 -22.3771,-19.296085 -16.16253,-14.468403 -38.63769,-15.333126 -34.64024,-19.93174 0.70257,-1.440854 13.0366,-1.482863 22.56658,1.971089 14.44277,5.234494 27.92074,21.249043 34.45076,37.256736 z"
           id="path46"
           inkscape:connector-curvature="0"
           style="fill:#f79b7f;stroke-width:1" />
        <path
           sodipodi:nodetypes="ccscsssc"
           class="cls-6"
           d="m 220.61543,164.59557 c 3.21,1.8 45.77492,-25.78916 65.62492,-39.98916 21.19767,-12.59019 21.53901,-22.46551 33.35106,-27.624994 5.34252,-2.333605 9.79121,-4.358065 27.13068,-3.690464 -13.43242,-4.45814 -19.31966,-5.021294 -21.95381,-16.017293 -2.72778,-11.386851 -20.00921,-46.087456 -30.49921,-44.787456 -10.49,1.3 -7.07737,37.322891 -27.20377,71.664117 -20.92921,35.711 -50.27987,58.30525 -46.44987,60.44525 z"
           id="path48"
           inkscape:connector-curvature="0"
           style="fill:#b50018;fill-opacity:1" />
        <path
           class="cls-11"
           d="m 286.70081,96.687348 c -2.57497,11.798052 -3.82735,17.697092 -2.08339,18.188672 4.74029,1.3226 24.89529,-13.10896 24.22814,-27.107435 -0.42136,-8.766605 -8.96558,-16.386178 -13.7878,-15.157214 -1.0534,0.280906 -3.40599,1.369416 -8.35695,24.075977 z"
           id="path50"
           inkscape:connector-curvature="0"
           style="fill:#f79b7f;stroke-width:1" />
        <path
           sodipodi:nodetypes="ssss"
           class="cls-11"
           d="m 113.1663,201.33675 c -16.90342,61.32781 7.4236,9.22225 24.91006,-19.54664 17.7261,-29.16317 62.78012,-65.5311 30.1739,-52.43761 -22.33328,8.96825 -50.51197,55.39646 -55.08396,71.98425 z"
           id="path159"
           inkscape:connector-curvature="0"
           style="fill:#f79b7f" />
        <path
           sodipodi:nodetypes="cscccc"
           class="cls-6"
           d="m 348.82113,92.671121 c 42.40154,7.012676 68.69548,-13.339681 88.24832,-8.244564 13.12437,3.419974 19.32452,23.011413 33.2576,35.124163 -28.15257,-28.710401 -25.91895,-70.628602 -42.8237,-78.135299 -20.38199,-3.497005 9.68226,17.882006 -16.89555,33.677886 -12.56259,12.958831 -44.4082,17.204201 -61.78667,17.577814 z"
           id="path48-4"
           inkscape:connector-curvature="0"
           style="fill:#b50018;fill-opacity:1" />
        <path
           sodipodi:nodetypes="cccsc"
           class="cls-11"
           d="m 404.94019,69.33562 c -7.67919,6.890312 -26.71197,16.167833 -25.7489,17.379854 2.62453,3.285002 36.79415,-8.029321 43.32573,-18.064512 8.66559,-11.853738 2.31776,-25.260603 -1.85925,-26.054014 -9.32847,-1.771919 -0.94152,13.475145 -15.71758,26.738672 z"
           id="path50-9"
           inkscape:connector-curvature="0"
           style="fill:#f79b7f" />
        <path
           sodipodi:nodetypes="cccsc"
           class="cls-11"
           d="m 291.72393,34.972954 c -2.01452,5.025854 20.74299,18.498099 37.4726,14.322668 6.51061,-1.624167 15.52905,-8.525984 15.43147,-12.150733 -0.13942,-4.935236 -21.42845,-5.623278 -31.27108,-5.582288 -6.89395,0.02871 -20.05762,-0.507165 -21.63299,3.410353 z"
           id="path44"
           inkscape:connector-curvature="0"
           style="fill:#f79b7f;stroke-width:1" />
      </g>
      <g
         id="g1153"
         transform="translate(-266.76302,-154.70475)">
        <polygon
           transform="translate(241.45302,78.384748)"
           class="cls-12"
           points="122.09,1035.06 122.09,676.72 207.3,647.81 294.63,725.12 315.05,743.19 315.58,743.66 336.03,761.76 336.03,604.13 446.85,566.52 446.85,924.87 383.16,946.48 296.26,857.15 254.81,814.56 254.81,990.03 "
           id="polygon54"
           style="fill:#610300" />
        <polygon
           transform="translate(241.45302,78.384748)"
           class="cls-12"
           points="468.49,916.26 468.49,559.18 528.93,538.67 575.91,522.73 576.34,522.58 639.05,501.31 686.04,485.36 686.04,592.31 639.05,608.25 576.34,629.53 575.91,629.68 575.91,655.32 576.34,655.17 639.05,633.9 639.05,740.84 576.34,762.12 575.91,762.26 575.91,881.07 "
           id="polygon56"
           style="fill:#610300" />
        <polygon
           transform="translate(241.45302,78.384748)"
           class="cls-12"
           points="922.95,762.92 815.1,799.7 815.1,548.52 707.25,585.11 707.25,478.16 815.1,441.57 922.94,404.98 922.95,404.98 1030.79,368.38 1030.79,475.33 922.95,511.92 922.94,511.92 922.94,761.66 922.95,761.65 "
           id="polygon58"
           style="fill:#610300" />
        <polygon
           transform="translate(241.45302,78.384748)"
           class="cls-13"
           points="122.59,1034.84 122.59,677.84 151.59,703.74 151.59,1060.73 "
           id="polygon60"
           style="fill:#ffffff" />
        <path
           class="cls-14"
           d="m 364.53302,757.33475 28,25 v 355.64995 l -28,-25 V 757.33475 m -1,-2.23 v 358.33995 l 30,26.79 V 781.89475 Z"
           id="path62"
           inkscape:connector-curvature="0"
           style="fill:#231f20" />
        <polygon
           transform="translate(241.45302,78.384748)"
           class="cls-13"
           points="123.06,676.92 207.18,648.37 236.32,674.4 152.2,702.95 "
           id="polygon64"
           style="fill:#ffffff" />
        <path
           class="cls-14"
           d="m 448.51302,727.32475 28.33,25.26 -83,28.18 -28.28,-25.26 83,-28.18 m 0.23,-1.14 -85.26,28.96 30,26.79 85.21,-28.91 -30,-26.8 z"
           id="path66"
           inkscape:connector-curvature="0"
           style="fill:#231f20" />
        <polygon
           transform="translate(241.45302,78.384748)"
           class="cls-13"
           points="336.53,761.53 336.53,605.24 365.53,631.14 365.53,787.43 "
           id="polygon68"
           style="fill:#ffffff" />
        <path
           class="cls-14"
           d="m 578.47302,684.74475 28,25 v 154.95 l -28,-25 v -154.95 m -1,-2.24 v 157.64 l 30,26.79 v -157.63 z"
           id="path70"
           inkscape:connector-curvature="0"
           style="fill:#231f20" />
        <polygon
           transform="translate(241.45302,78.384748)"
           class="cls-13"
           points="383.49,946.1 284.99,844.85 285.21,842.47 402.86,963.4 "
           id="polygon72"
           style="fill:#ffffff" />
        <path
           class="cls-14"
           d="m 527.05302,921.98475 107,109.93995 -8.72,-7.79 -98.35,-101.07995 0.1,-1.07 m -0.8,-2.25 -0.34,3.69 98.69,101.43995 30,26.79 -128.38,-131.91995 z"
           id="path74"
           inkscape:connector-curvature="0"
           style="fill:#231f20" />
        <path
           class="cls-15"
           d="M 718.29302,671.69475"
           id="path76"
           inkscape:connector-curvature="0"
           style="fill:#ffffff;stroke:#231f20;stroke-miterlimit:10" />
        <polygon
           transform="translate(241.45302,78.384748)"
           class="cls-13"
           points="468.99,916.03 468.99,560.3 497.99,586.2 497.99,941.93 "
           id="polygon78"
           style="fill:#ffffff" />
        <path
           class="cls-14"
           d="m 710.93302,639.79475 28,25 v 354.38995 l -28,-24.99995 v -354.39 m -1,-2.23 v 357.07 l 30,26.79995 V 664.35475 Z"
           id="path80"
           inkscape:connector-curvature="0"
           style="fill:#231f20" />
        <polygon
           transform="translate(241.45302,78.384748)"
           class="cls-13"
           points="576.88,655.51 638.93,634.47 668.07,660.49 606.02,681.54 "
           id="polygon82"
           style="fill:#ffffff" />
        <path
           class="cls-14"
           d="m 880.26302,713.41475 28.29,25.26 -61,20.68 -28.25,-25.21 61,-20.68 m 0.23,-1.13 -63.14,21.41 30,26.8 63.14,-21.42 z"
           id="path84"
           inkscape:connector-curvature="0"
           style="fill:#231f20" />
        <path
           class="cls-13"
           d="m 1086.043,904.24475 c -3.35,-1.52 -19.17,-16.59 -29,-26.37 v -249.86 l 29,25.9 z"
           id="path86"
           inkscape:connector-curvature="0"
           style="fill:#ffffff" />
        <path
           class="cls-14"
           d="m 1057.543,629.14475 28,25 v 249.25 c -4,-2.57 -16.73,-14.51 -28,-25.72 v -248.53 m -1,-2.24 v 251.17 c 0,0 26.9,26.8 29.94,26.8 h 0.06 v -251.18 l -30,-26.8 z"
           id="path88"
           inkscape:connector-curvature="0"
           style="fill:#231f20" />
        <polygon
           transform="translate(241.45302,78.384748)"
           class="cls-13"
           points="707.75,584.89 707.75,479.28 736.75,505.18 736.75,610.79 "
           id="polygon90"
           style="fill:#ffffff" />
        <path
           class="cls-14"
           d="m 949.69302,558.77475 28,25 v 104.28 l -28,-25 v -104.28 m -1,-2.23 v 107 l 30,26.79 v -107 z"
           id="path92"
           inkscape:connector-curvature="0"
           style="fill:#231f20" />
        <polygon
           transform="translate(241.45302,78.384748)"
           class="cls-13"
           points="708.22,478.36 1030.67,368.95 1059.82,394.97 737.36,504.39 "
           id="polygon94"
           style="fill:#ffffff" />
        <path
           class="cls-14"
           d="m 1272.003,447.89475 28.29,25.25 -321.36998,109 -28.28,-25.2 321.35998,-109 m 0.23,-1.13 -323.53998,109.73 30,26.79 323.53998,-109.78 -30,-26.79 z"
           id="path96"
           inkscape:connector-curvature="0"
           style="fill:#231f20" />
        <polygon
           transform="translate(241.45302,78.384748)"
           class="cls-13"
           points="337,604.33 446.73,567.09 475.88,593.11 366.14,630.35 "
           id="polygon98"
           style="fill:#ffffff" />
        <path
           class="cls-14"
           d="m 688.06302,646.03475 28.29,25.26 -108.65,36.85 -28.28,-25.26 108.64,-36.87 m 0.23,-1.13 -110.82,37.6 30,26.8 110.82,-37.61 z"
           id="path100"
           inkscape:connector-curvature="0"
           style="fill:#231f20" />
        <polygon
           transform="translate(241.45302,78.384748)"
           class="cls-13"
           points="469.46,559.38 685.92,485.93 715.07,511.95 498.6,585.4 "
           id="polygon102"
           style="fill:#ffffff" />
        <path
           class="cls-14"
           d="m 927.25302,564.87475 28.29,25.27 -215.38,73.07 -28.32,-25.26 215.37,-73.08 m 0.23,-1.13 -217.51,73.82 30,26.79 217.55,-73.82 -30,-26.79 z"
           id="path104"
           inkscape:connector-curvature="0"
           style="fill:#231f20" />
        <polygon
           transform="translate(241.45302,78.384748)"
           class="cls-16"
           points="152.09,1061.85 152.09,703.51 237.3,674.6 324.63,751.91 345.05,769.98 345.58,770.45 366.03,788.55 366.03,630.92 476.85,593.31 476.85,951.66 413.16,973.27 326.26,883.95 284.81,841.35 284.81,1016.82 "
           id="polygon106"
           style="fill:#050505" />
        <polygon
           transform="translate(241.45302,78.384748)"
           class="cls-16"
           points="498.49,943.05 498.49,585.97 558.93,565.47 605.91,549.52 606.34,549.37 669.05,528.1 716.04,512.15 716.04,619.1 669.05,635.04 606.34,656.33 605.91,656.47 605.91,682.11 606.34,681.97 669.05,660.69 669.05,767.63 606.34,788.91 605.91,789.05 605.91,907.86 "
           id="polygon108"
           style="fill:#050505" />
        <polygon
           transform="translate(241.45302,78.384748)"
           class="cls-16"
           points="952.95,789.71 845.1,826.49 845.1,575.31 737.25,611.9 737.25,504.95 845.1,468.37 952.94,431.77 952.95,431.77 1060.79,395.17 1060.79,502.12 952.95,538.71 952.94,538.71 952.94,788.45 952.95,788.44 "
           id="polygon110"
           style="fill:#050505" />
      </g>
    </g>
  </g>
</svg>
