<svg width="4" height="14" viewBox="0 0 4 14" fill="none" xmlns="http://www.w3.org/2000/svg">
<path d="M2 10.75C1.60217 10.75 1.22064 10.908 0.93934 11.1893C0.658035 11.4706 0.5 11.8522 0.5 12.25C0.5 12.6478 0.658035 13.0294 0.93934 13.3107C1.22064 13.592 1.60217 13.75 2 13.75C2.39782 13.75 2.77935 13.592 3.06066 13.3107C3.34196 13.0294 3.5 12.6478 3.5 12.25C3.5 11.8522 3.34196 11.4706 3.06066 11.1893C2.77935 10.908 2.39782 10.75 2 10.75ZM2 5.5C1.60217 5.5 1.22064 5.65804 0.93934 5.93934C0.658035 6.22064 0.5 6.60218 0.5 7C0.5 7.39782 0.658035 7.77936 0.93934 8.06066C1.22064 8.34196 1.60217 8.5 2 8.5C2.39782 8.5 2.77935 8.34196 3.06066 8.06066C3.34196 7.77936 3.5 7.39782 3.5 7C3.5 6.60218 3.34196 6.22064 3.06066 5.93934C2.77935 5.65804 2.39782 5.5 2 5.5ZM2 0.25C1.60217 0.25 1.22064 0.408035 0.93934 0.68934C0.658035 0.970644 0.5 1.35218 0.5 1.75C0.5 2.14782 0.658035 2.52936 0.93934 2.81066C1.22064 3.09196 1.60217 3.25 2 3.25C2.39782 3.25 2.77935 3.09196 3.06066 2.81066C3.34196 2.52936 3.5 2.14782 3.5 1.75C3.5 1.35218 3.34196 0.970644 3.06066 0.68934C2.77935 0.408035 2.39782 0.25 2 0.25Z" fill="#231F20"/>
</svg>
