<svg width="14" height="16" viewBox="0 0 14 16" fill="none" xmlns="http://www.w3.org/2000/svg">
<path d="M6.0625 0.125056C5.98796 0.124002 5.91396 0.137773 5.84479 0.165568C5.77562 0.193363 5.71266 0.234629 5.65958 0.286966C5.6065 0.339304 5.56435 0.40167 5.53557 0.470439C5.5068 0.539209 5.49199 0.613011 5.49199 0.687556C5.49199 0.762102 5.5068 0.835904 5.53557 0.904673C5.56435 0.973443 5.6065 1.03581 5.65958 1.08815C5.71266 1.14048 5.77562 1.18175 5.84479 1.20954C5.91396 1.23734 5.98796 1.25111 6.0625 1.25006H6.4375V2.02862C2.97887 2.31608 0.25 5.21861 0.25 8.75006C0.25 12.4713 3.27874 15.5001 7 15.5001C10.7213 15.5001 13.75 12.4713 13.75 8.75006C13.75 7.09151 13.1461 5.57312 12.1497 4.39654L12.8337 3.71173C12.9149 3.63269 12.9703 3.531 12.9927 3.41996C13.0151 3.30892 13.0034 3.19371 12.9593 3.08939C12.9151 2.98508 12.8405 2.89653 12.7452 2.83533C12.6499 2.77413 12.5383 2.74313 12.425 2.74639C12.279 2.75065 12.1403 2.81159 12.0383 2.91632L11.3535 3.6004C10.3116 2.718 9.00094 2.14817 7.5625 2.02862V1.25006H7.9375C8.01204 1.25111 8.08604 1.23734 8.15521 1.20954C8.22438 1.18175 8.28734 1.14048 8.34042 1.08815C8.3935 1.03581 8.43565 0.973443 8.46443 0.904673C8.4932 0.835904 8.50801 0.762102 8.50801 0.687556C8.50801 0.613011 8.4932 0.539209 8.46443 0.470439C8.43565 0.40167 8.3935 0.339304 8.34042 0.286966C8.28734 0.234629 8.22438 0.193363 8.15521 0.165568C8.08604 0.137773 8.01204 0.124002 7.9375 0.125056H6.0625ZM6.93335 3.12872C6.97859 3.13424 7.02434 3.13424 7.06958 3.12872C8.58253 3.14714 9.94864 3.75699 10.9478 4.74078C10.966 4.762 10.9859 4.78183 11.0071 4.8001C12.0074 5.81487 12.625 7.20802 12.625 8.75006C12.625 11.8633 10.1133 14.3751 7 14.3751C3.88673 14.3751 1.375 11.8633 1.375 8.75006C1.375 5.6593 3.85132 3.16467 6.93335 3.12872ZM9.42651 5.74493C9.28043 5.74919 9.14174 5.81013 9.03979 5.91485L7.29004 7.66461C7.19549 7.63885 7.09799 7.62555 7 7.62506C6.70163 7.62506 6.41548 7.74358 6.2045 7.95456C5.99353 8.16554 5.875 8.45169 5.875 8.75006C5.875 9.04842 5.99353 9.33457 6.2045 9.54555C6.41548 9.75653 6.70163 9.87506 7 9.87506C7.17248 9.87496 7.34262 9.83522 7.49729 9.75889C7.65195 9.68256 7.787 9.57168 7.89198 9.43484C7.99697 9.298 8.06909 9.13885 8.10276 8.96969C8.13643 8.80053 8.13076 8.6259 8.08618 8.45928L9.83521 6.71026C9.91636 6.63123 9.97176 6.52954 9.99416 6.4185C10.0166 6.30746 10.0049 6.19224 9.96075 6.08793C9.91659 5.98362 9.84196 5.89506 9.74664 5.83387C9.65132 5.77267 9.53974 5.74167 9.42651 5.74493Z" fill="#231F20"/>
</svg>
