<svg width="16" height="17" viewBox="0 0 16 17" fill="none" xmlns="http://www.w3.org/2000/svg">
<path d="M7.99996 0.5C6.72682 0.5 5.70193 1.5016 5.60054 2.75H1.43745C1.36292 2.74895 1.28891 2.76272 1.21974 2.79051C1.15057 2.81831 1.08762 2.85957 1.03453 2.91191C0.981452 2.96425 0.9393 3.02661 0.91053 3.09538C0.881759 3.16415 0.866943 3.23795 0.866943 3.3125C0.866943 3.38705 0.881759 3.46085 0.91053 3.52962C0.9393 3.59839 0.981452 3.66075 1.03453 3.71309C1.08762 3.76543 1.15057 3.80669 1.21974 3.83449C1.28891 3.86228 1.36292 3.87605 1.43745 3.875H2.06734L3.33589 13.7012C3.46827 14.7264 4.34805 15.5 5.38155 15.5H7.86226C7.54163 15.1666 7.26893 14.7886 7.05293 14.375H5.38081C4.91094 14.375 4.51175 14.0234 4.45137 13.5576L3.20186 3.875H12.7973L12.3498 7.34814C12.7312 7.42539 13.0936 7.55128 13.4367 7.71216L13.9318 3.875H14.5625C14.637 3.87605 14.711 3.86228 14.7802 3.83449C14.8493 3.80669 14.9123 3.76543 14.9654 3.71309C15.0185 3.66075 15.0606 3.59839 15.0894 3.52962C15.1181 3.46085 15.133 3.38705 15.133 3.3125C15.133 3.23795 15.1181 3.16415 15.0894 3.09538C15.0606 3.02661 15.0185 2.96425 14.9654 2.91191C14.9123 2.85957 14.8493 2.81831 14.7802 2.79051C14.711 2.76272 14.637 2.74895 14.5625 2.75H10.3994C10.298 1.5016 9.27309 0.5 7.99996 0.5ZM7.99996 1.625C8.66447 1.625 9.18193 2.11364 9.2751 2.75H6.72481C6.81798 2.11364 7.33544 1.625 7.99996 1.625ZM11.375 8C9.09683 8 7.24996 9.84688 7.24996 12.125C7.24996 14.4031 9.09683 16.25 11.375 16.25C13.6531 16.25 15.5 14.4031 15.5 12.125C15.5 9.84688 13.6531 8 11.375 8ZM13.25 9.875C13.2925 9.875 13.3347 9.88478 13.3752 9.89917C13.3896 9.9043 13.4031 9.912 13.4169 9.91895C13.4517 9.9365 13.4861 9.95576 13.5151 9.98486C13.5459 10.0157 13.5668 10.0524 13.5847 10.0896C13.5898 10.1004 13.596 10.1107 13.6001 10.1218C13.6304 10.2048 13.631 10.2952 13.6008 10.3782C13.5963 10.3904 13.589 10.4015 13.5832 10.4133C13.5655 10.4495 13.5452 10.4851 13.5151 10.5151L11.9052 12.125C12.7284 12.9478 13.4821 13.7019 13.5151 13.7349C13.5446 13.7644 13.5641 13.7998 13.5817 13.8352C13.5882 13.8482 13.596 13.8605 13.6008 13.874C13.6155 13.915 13.625 13.957 13.625 14C13.625 14.0425 13.6152 14.0847 13.6008 14.1252C13.5957 14.1397 13.588 14.1532 13.581 14.167C13.5635 14.2018 13.5442 14.2361 13.5151 14.2651C13.4843 14.296 13.4475 14.3169 13.4104 14.3347C13.3996 14.3399 13.3892 14.346 13.3781 14.3501C13.2952 14.3805 13.2047 14.381 13.1218 14.3508C13.1095 14.3464 13.0984 14.339 13.0866 14.3333C13.0504 14.3155 13.0149 14.2953 12.9848 14.2651L11.375 12.6553L9.76509 14.2651C9.73556 14.2947 9.70016 14.3142 9.66475 14.3318C9.65178 14.3382 9.63941 14.346 9.62593 14.3508C9.58498 14.3655 9.54293 14.375 9.49996 14.375C9.45744 14.375 9.41523 14.3652 9.37471 14.3508C9.3603 14.3457 9.34678 14.338 9.33296 14.3311C9.29817 14.3135 9.26385 14.2942 9.23482 14.2651C9.20399 14.2343 9.1831 14.1976 9.16524 14.1604C9.16009 14.1496 9.15392 14.1393 9.14986 14.1282C9.11948 14.0452 9.11893 13.9548 9.14913 13.8718C9.15359 13.8596 9.16093 13.8485 9.1667 13.8367C9.18445 13.8005 9.20466 13.7649 9.23482 13.7349C9.26782 13.7019 10.0216 12.9478 10.8447 12.125L9.23482 10.5151C9.20528 10.4856 9.1858 10.4502 9.16817 10.4148C9.16175 10.4018 9.15395 10.3895 9.14913 10.376C9.13442 10.335 9.12496 10.293 9.12496 10.25C9.12496 10.2075 9.13473 10.1653 9.14913 10.1248C9.15425 10.1103 9.16196 10.0968 9.1689 10.083C9.18645 10.0482 9.20571 10.0139 9.23482 9.98486C9.26993 9.94975 9.31118 9.92406 9.3542 9.90576C9.36088 9.90293 9.36791 9.9016 9.37471 9.89917C9.41045 9.88642 9.44711 9.8795 9.48457 9.87793C9.49288 9.87759 9.50116 9.87626 9.50948 9.87646C9.55198 9.87755 9.59451 9.88515 9.63472 9.90063C9.6416 9.90329 9.64775 9.90781 9.6545 9.91089C9.69424 9.92901 9.73242 9.95211 9.76509 9.98486C9.79809 10.0179 10.5522 10.7716 11.375 11.5947L12.9848 9.98486C13.0144 9.95533 13.0497 9.93585 13.0852 9.91821C13.0981 9.9118 13.1105 9.90399 13.124 9.89917C13.1649 9.88447 13.207 9.875 13.25 9.875Z" fill="#FF5E54"/>
</svg>
