<svg width="16" height="18" viewBox="0 0 16 18" fill="none" xmlns="http://www.w3.org/2000/svg">
<path d="M4.45834 0.500053C4.41158 0.499445 4.3649 0.504085 4.31918 0.513888C3.82369 0.551626 3.38235 0.782009 3.06755 1.134C3.03179 1.16447 2.99957 1.19886 2.97152 1.23654L0.46094 4.53814C0.460121 4.53949 0.459307 4.54085 0.458499 4.54221C0.215426 4.8665 0.0833359 5.261 0.0833359 5.66688V13.2084C0.0833359 14.2365 0.93021 15.0834 1.95834 15.0834H4.25V16.5417C4.25002 16.7075 4.31587 16.8664 4.43308 16.9836C4.55029 17.1008 4.70925 17.1667 4.875 17.1667H5.77995C6.16666 17.1667 6.53772 17.0128 6.81104 16.7395L8.46712 15.0834H10.5724C11.1005 15.0834 11.604 14.8598 11.9591 14.4698L15.1045 11.0103H15.1037C15.6266 10.4353 15.9167 9.68551 15.9167 8.90826V2.37505C15.9167 1.34693 15.0698 0.500053 14.0417 0.500053H4.45834ZM4.45834 1.75005H14.0417C14.3944 1.75005 14.6667 2.02234 14.6667 2.37505V8.90826C14.6667 9.37517 14.4929 9.82467 14.1792 10.1696L13.1213 11.3334H8.20834C8.04259 11.3334 7.88364 11.3993 7.76644 11.5165L7.16667 12.1163V11.9584C7.16665 11.7926 7.1008 11.6337 6.98359 11.5165C6.86639 11.3993 6.70742 11.3334 6.54167 11.3334H3.83334V2.37505C3.83334 2.25334 3.86752 2.14258 3.92448 2.0479L3.9668 1.99257C3.97622 1.98016 3.98518 1.9674 3.99365 1.95432C4.1069 1.82875 4.27042 1.75005 4.45834 1.75005ZM2.58334 3.81223V11.5417C2.58334 12.1099 3.05684 12.5834 3.625 12.5834H5.91667V13.6251C5.91672 13.7486 5.9534 13.8694 6.02208 13.9722C6.09076 14.0749 6.18836 14.155 6.30254 14.2023C6.41672 14.2496 6.54236 14.262 6.66358 14.2379C6.78479 14.2138 6.89614 14.1543 6.98356 14.0669L8.46712 12.5834H11.9844L11.0347 13.6283C10.9156 13.7591 10.7485 13.8334 10.5724 13.8334H8.20834C8.04259 13.8334 7.88364 13.8993 7.76644 14.0165L5.92725 15.8557C5.88806 15.8949 5.8349 15.9167 5.77995 15.9167H5.5V14.4584C5.49999 14.2926 5.43413 14.1337 5.31693 14.0165C5.19972 13.8993 5.04076 13.8334 4.875 13.8334H1.95834C1.60563 13.8334 1.33334 13.5611 1.33334 13.2084V5.66688C1.33334 5.53193 1.37757 5.39991 1.45866 5.29172L2.58334 3.81223ZM7.7819 4.2411C7.61629 4.24369 7.45847 4.31191 7.34311 4.43077C7.22775 4.54964 7.16429 4.70943 7.16667 4.87505V8.20839C7.1655 8.29121 7.1808 8.37343 7.21168 8.45029C7.24257 8.52714 7.28842 8.59709 7.34657 8.65607C7.40472 8.71506 7.47402 8.76189 7.55043 8.79386C7.62684 8.82583 7.70884 8.84229 7.79167 8.84229C7.8745 8.84229 7.9565 8.82583 8.03291 8.79386C8.10932 8.76189 8.17862 8.71506 8.23677 8.65607C8.29492 8.59709 8.34077 8.52714 8.37166 8.45029C8.40254 8.37343 8.41784 8.29121 8.41667 8.20839V4.87505C8.41787 4.7914 8.40226 4.70836 8.37078 4.63085C8.33929 4.55334 8.29257 4.48294 8.23337 4.42382C8.17418 4.3647 8.10372 4.31806 8.02617 4.28668C7.94862 4.25529 7.86555 4.23979 7.7819 4.2411ZM11.1152 4.2411C10.9496 4.24369 10.7918 4.31191 10.6764 4.43077C10.5611 4.54964 10.4976 4.70943 10.5 4.87505V8.20839C10.4988 8.29121 10.5141 8.37343 10.545 8.45029C10.5759 8.52714 10.6217 8.59709 10.6799 8.65607C10.7381 8.71506 10.8074 8.76189 10.8838 8.79386C10.9602 8.82583 11.0422 8.84229 11.125 8.84229C11.2078 8.84229 11.2898 8.82583 11.3662 8.79386C11.4427 8.76189 11.5119 8.71506 11.5701 8.65607C11.6283 8.59709 11.6741 8.52714 11.705 8.45029C11.7359 8.37343 11.7512 8.29121 11.75 8.20839V4.87505C11.7512 4.7914 11.7356 4.70836 11.7041 4.63085C11.6726 4.55334 11.6259 4.48294 11.5667 4.42382C11.5075 4.3647 11.437 4.31806 11.3595 4.28668C11.2819 4.25529 11.1989 4.23979 11.1152 4.2411Z" fill="white"/>
</svg>
