<svg width="18" height="16" viewBox="0 0 18 16" fill="none" xmlns="http://www.w3.org/2000/svg">
<path d="M12.3333 0.5C10.0702 0.5 8.23358 2.32864 8.18455 4.5804C6.18362 4.34042 4.88064 3.59229 4.08136 2.85514C3.19497 2.03766 2.91437 1.31136 2.91437 1.31136C2.8734 1.20814 2.80568 1.1177 2.71816 1.04934C2.63064 0.980981 2.52649 0.937171 2.41643 0.922418C2.30636 0.907665 2.19435 0.922502 2.09192 0.965402C1.98949 1.0083 1.90034 1.07772 1.83364 1.1665C1.83364 1.1665 1.08331 2.16667 1.08331 3.625C1.08331 4.45874 1.34656 5.07565 1.6603 5.59847C1.64874 5.59306 1.57078 5.56592 1.57078 5.56592C1.47117 5.51618 1.36008 5.49396 1.249 5.50154C1.13792 5.50912 1.03088 5.54623 0.938952 5.60904C0.847021 5.67185 0.773535 5.75807 0.726091 5.8588C0.678648 5.95952 0.658969 6.07109 0.669089 6.18197C0.669089 6.18197 0.909649 7.94035 2.56281 9.22559L2.39028 9.26872C2.29663 9.2921 2.20967 9.33685 2.1362 9.39946C2.06274 9.46208 2.00478 9.54086 1.96686 9.62962C1.92895 9.71839 1.9121 9.81473 1.91765 9.91109C1.9232 10.0075 1.95099 10.1012 1.99884 10.1851C1.99884 10.1851 2.27917 10.6593 2.86635 11.1584C3.2145 11.4543 3.72593 11.7597 4.32876 12.0422C3.58843 12.3127 2.48449 12.5833 0.874981 12.5833C0.754878 12.5833 0.637314 12.6179 0.536354 12.683C0.435393 12.748 0.355312 12.8408 0.305691 12.9501C0.25607 13.0595 0.239009 13.1809 0.256551 13.2997C0.274092 13.4185 0.325493 13.5297 0.404603 13.6201C0.404603 13.6201 0.8822 14.1463 1.82632 14.604C2.77043 15.0618 4.22476 15.5 6.29165 15.5C9.92486 15.5 12.5353 13.7571 14.1644 11.5482C15.7935 9.33921 16.5 6.69213 16.5 4.66667C16.5 4.53814 16.492 4.41143 16.4804 4.28581C17.3601 3.43817 17.6902 2.80093 17.706 2.76969C17.7852 2.61094 17.7557 2.42029 17.6328 2.29362C17.5103 2.16654 17.3204 2.13075 17.1592 2.20492L17.0916 2.23584C17.0337 2.26251 16.9758 2.28934 16.9175 2.31559C17.087 2.04518 17.2209 1.7562 17.3138 1.45703C17.3654 1.29203 17.3097 1.11122 17.173 1.00456C17.0363 0.897891 16.8481 0.886471 16.7002 0.976888C16.1909 1.2864 15.7028 1.50308 15.1946 1.64827C14.4469 0.938947 13.4403 0.5 12.3333 0.5ZM12.3333 1.75C13.9513 1.75 15.25 3.04868 15.25 4.66667C15.25 6.3912 14.6023 8.84829 13.1585 10.806C11.7147 12.7637 9.53344 14.25 6.29165 14.25C4.72281 14.25 3.67923 13.9662 2.89728 13.6592C3.71637 13.532 4.42163 13.3622 4.92853 13.166C5.80756 12.8257 6.28188 12.4328 6.28188 12.4328C6.36889 12.3581 6.43367 12.2609 6.46916 12.1519C6.50465 12.0429 6.50946 11.9262 6.48308 11.8146C6.4567 11.7031 6.40013 11.6009 6.31958 11.5193C6.23902 11.4377 6.13758 11.3799 6.02635 11.3521C4.89188 11.0684 4.16428 10.6097 3.70783 10.2274L4.35968 10.0646C4.48859 10.0324 4.6039 9.96003 4.68887 9.85788C4.77384 9.75574 4.82404 9.62918 4.83221 9.49656C4.84037 9.36395 4.80607 9.23218 4.73427 9.12038C4.66247 9.00859 4.55692 8.92258 4.43292 8.87484C3.08079 8.35479 2.51299 7.61932 2.22264 7.00309C2.57596 7.07624 2.90494 7.16667 3.37498 7.16667C3.51573 7.16655 3.65233 7.11893 3.76265 7.03152C3.87297 6.94411 3.95056 6.82202 3.98286 6.68502C4.01515 6.54803 4.00027 6.40414 3.9406 6.27665C3.88094 6.14917 3.78 6.04556 3.65412 5.98258C3.65412 5.98258 2.33331 5.375 2.33331 3.625C2.33331 3.31081 2.42033 3.11181 2.48387 2.87386C2.70186 3.16681 2.88152 3.44941 3.23338 3.77393C4.30616 4.76331 6.0793 5.77215 8.75828 5.91585C8.84305 5.92038 8.92785 5.90758 9.00752 5.87826C9.08718 5.84893 9.16004 5.80369 9.22164 5.74528C9.28324 5.68688 9.3323 5.61653 9.36583 5.53855C9.39936 5.46056 9.41665 5.37656 9.41665 5.29167V4.66667C9.41665 3.04868 10.7153 1.75 12.3333 1.75Z" fill="white"/>
</svg>
